<svg data-v-0dd9719b="" version="1.0" xmlns="http://www.w3.org/2000/svg" xmlns:xlink="http://www.w3.org/1999/xlink" width="100%" height="100%" viewBox="0 0 340.000000 250.000000" preserveAspectRatio="xMidYMid meet" color-interpolation-filters="sRGB" style="margin: auto;"> <rect data-v-0dd9719b="" x="0" y="0" width="100%" height="100%" fill="#fff" fill-opacity="1" class="background"></rect> <rect data-v-0dd9719b="" x="0" y="0" width="100%" height="100%" fill="url(#watermark)" fill-opacity="1" class="watermarklayer"></rect> <g data-v-0dd9719b="" fill="#333" class="icon-text-wrapper icon-svg-group iconsvg" transform="translate(48.63999938964844,94.96395683288574)"><g class="iconsvg-imagesvg" transform="translate(0,0)"><g><rect fill="#333" fill-opacity="0" stroke-width="2" x="0" y="0" width="60" height="60.07208650380456" class="image-rect"></rect> <svg x="0" y="0" width="60" height="60.07208650380456" filtersec="colorsb5501851166" class="image-svg-svg primary" style="overflow: visible;"><svg xmlns="http://www.w3.org/2000/svg" viewBox="0 -0.00001430726933904225 99.8800048828125 100.00004577636719"><g fill-rule="evenodd"><path d="M10.85 81.18L46.64 87V76.88l-40.3-2.39a49.59 49.59 0 0 0 4.51 6.69zM51.52 100v-8.74l-37.47-6.45A49.85 49.85 0 0 0 49.94 100h1.58zM1.57 62.7l63.7 1.11v10L3.15 67.68a48.89 48.89 0 0 1-1.58-5zM.49 57.48l56.82 3.27V50.54L0 52.53c.08 1.67.25 3.32.49 4.95zM0 47.19L44.45 49V38.39l-43.94 4C.27 44 .11 45.58 0 47.19zM1.62 37.09l32.83-1.35v-10l-30.66 5a49 49 0 0 0-2.17 6.35zM6.32 25.55l35.4-3.08V11.64l-30 6.12a49.44 49.44 0 0 0-5.41 7.79zM49.63 0v9.2L15.26 14A49.84 49.84 0 0 1 49.63 0z" fill="#2491eb"></path><path d="M90 80l-43.36 7V76.88l47.12-2.8A50.6 50.6 0 0 1 90 80zM51.52 100v-8.74l34.33-6.48A49.82 49.82 0 0 1 51.52 100zM96.25 68.86l-31 5v-10l33-1.08a49 49 0 0 1-2 6.13zM99.42 57.18l-42.11 3.57V50.54l42.57 1.71c-.07 1.66-.23 3.31-.46 4.93zM99.88 47.67L44.45 49V38.39l54.81 3.38a49.74 49.74 0 0 1 .62 5.9zM98.19 36.88l-63.74-1.14v-10l62 5.95a48.69 48.69 0 0 1 1.72 5.2zM93.78 26l-52.06-3.53V11.64l47.39 7.29a50.45 50.45 0 0 1 4.67 7zM49.63 0v9.2l35.18 5A49.82 49.82 0 0 0 49.94 0z" fill="#145593"></path></g></svg></svg> <!----></g></g> <g transform="translate(67,4.154790878295898)"><g data-gra="path-name" fill-rule="" class="tp-name iconsvg-namesvg" transform="translate(0,0)"><g transform="scale(1)"><g><path d="M17.14-6.93L28.21-6.93 28.21-10.26 17.14-10.26 17.14-6.93ZM36.41 2.34L36.41 2.34 9.04 2.29Q6.71 2.29 6.71-0.58L6.71-0.58 6.66-21.96 3.42-21.96Q2.16-21.96 2.16-23.4L2.16-23.4 2.16-29.92Q2.16-31.45 3.33-31.45L3.33-31.45 6.66-31.45 6.66-32.94Q6.66-33.57 7.02-33.88 7.38-34.2 7.92-34.2L7.92-34.2 15.97-34.2Q17.14-34.2 17.14-33.07L17.14-33.07 17.14-31.59 28.08-31.59 28.04-32.76Q28.08-34.24 29.25-34.24L29.25-34.24 37.48-34.24Q37.98-34.24 38.32-33.91 38.66-33.57 38.66-32.85L38.66-32.85 38.66-31.41 41.49-31.41Q42.8-31.41 42.8-29.97L42.8-29.97 42.8-23.49Q42.8-22.05 41.63-22.05L41.63-22.05 38.66-22.05 38.7 0.04Q38.7 2.34 36.41 2.34ZM17.14-19.3L28.21-19.3 28.21-22.09 17.14-22.09 17.14-19.3ZM71.82-20.75L78.12-20.75 78.12-21.82 71.82-21.82 71.82-20.75ZM71.78-26.86L78.12-26.86 78.12-27.86 71.78-27.86 71.78-26.86ZM54.41 2.52L54.41 2.52 48.51 2.52Q47.84 2.43 47.56 2.02 47.3 1.62 47.25 0.85L47.25 0.85 47.2-0.32Q47.16-0.81 47.25-1.42 47.34-2.02 47.43-2.75L47.43-2.75 48.24-12.91Q48.28-14.04 49.45-14.04L49.45-14.04 56.07-14.04Q57.33-13.99 57.33-12.78L57.33-12.78 56.3 1.26Q55.98 2.52 54.41 2.52ZM60.12-0.09L60.12-0.09 57.69-0.09Q56.92-0.18 56.92-1.17L56.92-1.17Q56.92-3.24 56.95-4.48 56.97-5.71 57.02-6.17L57.02-6.17 57.69-9.54Q57.91-10.57 58.55-10.66L58.55-10.66 60.8-10.66Q61.47-10.57 61.47-9.18L61.47-9.18Q61.42-7.74 61.42-6.68 61.42-5.63 61.34-5L61.34-5 60.8-1.26Q60.62-0.14 60.12-0.09ZM71.23 2.29L71.23 2.29 62.95 2.29Q61.92 2.29 61.92 1.35L61.92 1.35 61.92-14.49 49.37-14.49Q48.65-14.49 48.65-15.57L48.65-15.57 48.65-19.04Q48.65-19.93 49.55-19.93L49.55-19.93 61.92-19.93 61.92-21.02 48.06-21.02Q47.3-21.02 47.3-22L47.3-22 47.3-25.43Q47.3-26.5 48.33-26.5L48.33-26.5 61.92-26.5 61.92-27.45 49.68-27.45Q48.73-27.45 48.73-28.35L48.73-28.35 48.65-31.5Q48.6-32.63 49.63-32.63L49.63-32.63 61.97-32.63 61.97-33.21Q61.97-34.2 62.69-34.24L62.69-34.24 71.37-34.24Q72.18-34.16 72.18-33.25L72.18-33.25 72.18-32.63 84.69-32.63Q86.49-32.63 86.53-30.82L86.53-30.82 86.53-26.41Q87.75-26.41 87.75-25.38L87.75-25.38 87.75-22Q87.75-21.02 86.53-21.02L86.53-21.02 86.53-16.34Q86.44-14.49 84.82-14.45L84.82-14.45 72.22-14.45 72.27 1.21Q72.27 2.29 71.23 2.29ZM76.86-0.27L76.86-0.27 74.11-0.27Q73.48-0.27 73.35-1.44L73.35-1.44 72.81-5.17Q72.72-5.8 72.7-6.86 72.67-7.92 72.67-9.36L72.67-9.36Q72.67-10.71 73.35-10.8L73.35-10.8 75.91-10.8Q76.23-10.75 76.5-10.48 76.77-10.21 76.86-9.72L76.86-9.72 77.58-6.34Q77.67-5.89 77.67-4.66 77.67-3.42 77.72-1.35L77.72-1.35Q77.72-0.27 76.86-0.27ZM86.58 2.38L86.58 2.38 79.56 2.34Q78.25 2.34 78.25 1.21L78.25 1.21 78.3-13.14Q78.3-14.04 79.34-14.13L79.34-14.13 86.58-14.13Q87.75-14.04 87.75-13.14L87.75-13.14 87.7 1.21Q87.7 2.34 86.58 2.38ZM102.38-14.58L121.23-14.58 121.23-18 102.38-18 102.38-14.58ZM131.49 2.34L131.49 2.34 94.5 2.34Q92.34 2.21 92.34 0L92.34 0 92.2-31.99Q92.2-34.29 94.32-34.29L94.32-34.29 131.63-34.24Q132.8-34.24 132.8-32.8L132.8-32.8 132.8-27.45Q132.8-26.1 131.49-26.1L131.49-26.1 102.11-26.1 102.11-24.3 128.88-24.3Q131.18-24.21 131.18-22.18L131.18-22.18 131.18-10.21Q131.18-8.05 129.1-8.05L129.1-8.05 102.33-7.96 102.33-8.1 102.11-7.96 102.11-5.63 131.49-5.63Q132.8-5.63 132.8-4.18L132.8-4.18 132.8 0.99Q132.8 2.34 131.49 2.34ZM176.67 2.25L176.67 2.25 138.42 2.25Q137.12 2.25 137.12 0.99L137.12 0.99 137.12-5.49Q137.12-6.25 137.41-6.55 137.7-6.84 138.33-6.84L138.33-6.84 147.65-6.84 147.65-25.06 138.96-25.06Q137.66-25.06 137.66-26.41L137.66-26.41 137.66-32.8Q137.66-34.24 138.87-34.24L138.87-34.24 176-34.2Q177.3-34.2 177.3-32.85L177.3-32.85 177.34-26.41Q177.34-25.06 176.13-25.06L176.13-25.06 167.4-25.06 167.4-6.84 176.49-6.84Q177.84-6.84 177.84-5.54L177.84-5.54 177.88 0.99Q177.88 2.25 176.67 2.25ZM174.38-10.3L174.38-10.3 169.74-10.3Q168.25-10.35 168.25-11.43L168.25-11.43Q168.25-15.43 168.48-16.43L168.48-16.43 169.78-22.23Q170.28-23.27 171.31-23.31L171.31-23.31 175.68-23.31Q176.89-23.22 176.89-21.87L176.89-21.87 176.89-20.11Q176.89-19.53 176.85-18.92 176.81-18.31 176.72-17.68L176.72-17.68 175.68-11.52Q175.32-10.35 174.38-10.3ZM145.53-10.26L145.53-10.26 140.67-10.26Q139.68-10.26 139.32-11.43L139.32-11.43 138.24-17.59Q138.15-18.22 138.1-19.28 138.06-20.34 138.06-21.78L138.06-21.78Q138.06-23.18 139.32-23.22L139.32-23.22 143.87-23.22Q144.99-23.13 145.49-22.14L145.49-22.14 146.79-16.34Q146.88-15.88 146.95-15.28 147.01-14.67 147.01-13.81L147.01-13.81 147.01-11.34Q147.01-10.26 145.53-10.26ZM156.47-6.84L158.58-6.84 158.58-25.06 156.47-25.06 156.47-6.84Z" transform="translate(-2.1600000858306885, 34.290000915527344)"></path></g> <!----> <!----> <!----> <!----> <!----> <!----> <!----></g></g> <g data-gra="path-slogan" fill-rule="" class="tp-slogan iconsvg-slogansvg" fill="#333" transform="translate(50.00444793701172,42.810001373291016)"><!----> <!----> <g transform="scale(1, 1)"><g transform="scale(1)"><path d="M7.31-3.61L4.69-3.61L4.69-4.59L8.44-4.59L8.44 0L7.69 0L7.41-1.08Q6.42 0.09 4.59 0.14L4.59 0.14Q2.86 0.14 1.92-0.75L1.92-0.75Q0.52-2.06 0.56-4.36L0.56-4.36Q0.89-8.63 4.64-8.81L4.64-8.81Q7.83-8.63 8.30-6L8.30-6L7.17-6Q6.70-7.78 4.59-7.83L4.59-7.83Q1.92-7.64 1.78-4.31L1.78-4.31Q1.78-0.75 4.64-0.75L4.64-0.75Q5.67-0.75 6.42-1.31L6.42-1.31Q7.36-2.06 7.31-3.61L7.31-3.61ZM15.89 0L15.05-2.48L11.58-2.48L10.69 0L9.52 0L12.75-8.58L14.06-8.58L17.16 0L15.89 0ZM13.31-7.31L11.95-3.52L14.63-3.52L13.36-7.31L13.31-7.31ZM19.59-8.58L23.91-1.64L23.91-8.58L25.03-8.58L25.03 0L23.72 0L19.36-6.94L19.31-6.94L19.31 0L18.19 0L18.19-8.58L19.59-8.58ZM33.09-6.09L33.09-6.09L32.02-6.09Q31.92-7.73 29.86-7.83L29.86-7.83Q27.94-7.78 27.94-6.33L27.94-6.33Q27.94-5.39 28.97-5.25L28.97-5.25L31.41-4.69Q33.33-4.22 33.33-2.34L33.33-2.34Q33.28 0.05 29.95 0.14L29.95 0.14Q28.13 0.14 27.38-0.61L27.38-0.61Q26.44-1.31 26.48-2.77L26.48-2.77L27.61-2.77Q27.66-0.80 29.95-0.75L29.95-0.75Q32.20-0.80 32.25-2.20L32.25-2.20Q32.44-3.38 30.38-3.75L30.38-3.75L28.59-4.13Q26.77-4.64 26.77-6.19L26.77-6.19Q26.91-8.72 29.77-8.81L29.77-8.81Q33-8.81 33.09-6.09ZM40.45-3.19L40.45-8.58L41.63-8.58L41.63-3.05Q41.48 0.05 38.11 0.14L38.11 0.14Q34.97 0.05 34.83-2.86L34.83-2.86L34.83-8.58L36-8.58L36-3.19Q36.05-0.84 38.16-0.80L38.16-0.80Q40.45-0.84 40.45-3.19L40.45-3.19ZM46.03-1.92L46.03-2.77L47.11-2.77L47.11-2.16Q47.11-0.75 48.42-0.75L48.42-0.75Q49.78-0.75 49.78-2.25L49.78-2.25L49.78-8.58L50.95-8.58L50.95-2.30Q50.91 0.09 48.47 0.14L48.47 0.14Q46.17 0.09 46.03-1.92L46.03-1.92ZM58.41-3.19L58.41-8.58L59.58-8.58L59.58-3.05Q59.44 0.05 56.06 0.14L56.06 0.14Q52.92 0.05 52.78-2.86L52.78-2.86L52.78-8.58L53.95-8.58L53.95-3.19Q54-0.84 56.11-0.80L56.11-0.80Q58.41-0.84 58.41-3.19L58.41-3.19ZM68.30-8.58L65.06-3.47L65.06 0L63.89 0L63.89-3.47L60.66-8.58L62.02-8.58L64.45-4.45L66.94-8.58L68.30-8.58ZM75 0L74.16-2.48L70.69-2.48L69.80 0L68.63 0L71.86-8.58L73.17-8.58L76.27 0L75 0ZM72.42-7.31L71.06-3.52L73.73-3.52L72.47-7.31L72.42-7.31Z" transform="translate(-0.5609879032258065, 8.8125)"></path></g></g></g></g></g><defs v-gra="od"></defs></svg>